<svg version="1.1" xmlns="http://www.w3.org/2000/svg" xmlns:xlink="http://www.w3.org/1999/xlink" width="1024.000000pt" height="1024.000000pt" viewBox="0,0,256,256"><g fill="#ffffff" fill-rule="nonzero" stroke="none" stroke-width="1" stroke-linecap="butt" stroke-linejoin="miter" stroke-miterlimit="10" stroke-dasharray="" stroke-dashoffset="0" font-family="none" font-weight="none" font-size="none" text-anchor="none" style="mix-blend-mode: normal"><g transform="translate(0.08722,2.62158) scale(0.25,0.25)"><g transform="translate(0,1024) scale(0.1,-0.1)"><path d="M2470,7457c-58,-30 -315,-161 -572,-291c-302,-153 -474,-246 -488,-263c-27,-34 -26,-85 3,-117c12,-14 132,-82 267,-150l245,-124l3,-85c3,-99 9,-93 -124,-104c-201,-15 -444,67 -563,191c-34,36 -70,46 -99,28c-36,-23 -42,-168 -12,-286c25,-97 61,-165 126,-235l50,-54l-41,-62c-142,-212 -185,-538 -104,-795c29,-93 76,-184 130,-253l47,-60l-63,-82c-115,-151 -181,-297 -210,-462c-35,-202 0,-379 81,-399c20,-5 23,-11 18,-28c-11,-37 -44,-95 -90,-163c-33,-48 -43,-71 -38,-87c18,-60 91,-91 212,-89c40,0 72,-3 70,-8c-2,-4 -33,-46 -70,-93c-80,-100 -88,-134 -37,-165c83,-51 336,-25 532,54c31,12 57,22 57,21c0,-2 -20,-23 -44,-48c-50,-53 -64,-94 -44,-134c24,-50 57,-65 174,-78c88,-10 125,-20 192,-50c107,-49 142,-54 184,-29c22,13 40,17 53,12c29,-11 119,-11 149,1c35,13 61,57 60,101l-1,38l96,3c94,3 97,2 123,-24c14,-16 30,-28 35,-28c45,0 205,-38 275,-66c101,-39 121,-41 164,-15c23,14 43,18 77,14c59,-7 88,1 126,33c65,55 45,142 -56,234c-31,28 -54,52 -52,53c28,19 117,93 164,137c33,31 95,78 139,105c189,115 323,299 382,520c22,85 29,259 14,352c-16,100 -61,218 -114,297l-42,63l53,63c174,209 226,544 131,840c-26,81 -81,193 -117,239l-29,36l50,55c66,73 123,189 138,281c16,94 9,203 -15,229c-24,26 -67,25 -91,-1c-27,-30 -117,-90 -191,-128c-109,-54 -203,-76 -338,-76c-66,0 -133,4 -148,8l-28,8l3,86l3,86l245,124c135,68 255,135 268,149c26,29 29,79 7,111c-17,24 -1144,602 -1190,610c-23,3 -55,-8 -135,-50zM3145,7119c294,-149 535,-273 535,-275c0,-4 -396,-204 -405,-204c-3,0 -5,29 -5,65c0,64 0,65 -37,88c-223,140 -709,180 -1067,87c-86,-22 -209,-74 -228,-97c-7,-8 -11,-41 -10,-79c1,-35 0,-64 -3,-64c-13,0 -405,201 -405,208c0,10 1050,540 1073,541c9,1 258,-121 552,-270zM2787,6789c97,-13 264,-54 321,-79l42,-19v-159v-159l-82,18c-308,68 -682,72 -943,10l-75,-18l2,161l3,161l73,28c154,59 453,84 659,56zM1347,6307c133,-68 360,-108 498,-89c39,6 139,26 224,46c235,54 382,70 596,63c198,-6 302,-21 505,-72c167,-41 249,-49 371,-35c154,19 303,75 403,153l38,31l-6,-55c-17,-128 -78,-239 -173,-313c-32,-25 -62,-46 -66,-46c-5,0 -23,11 -41,25c-18,14 -36,25 -40,25c-4,0 -14,7 -23,15c-8,9 -18,13 -21,10c-4,-3 0,-10 8,-15c12,-8 12,-10 2,-10c-8,0 -16,8 -19,19c-11,43 -246,105 -292,76c-10,-6 -12,-4 -6,5c6,10 4,12 -9,7c-10,-4 -36,-7 -59,-7c-32,0 -38,-3 -27,-10c11,-8 9,-9 -10,-5c-31,7 -126,-27 -122,-43c1,-7 -2,-12 -8,-12c-5,0 -10,5 -10,10c0,15 -71,-24 -109,-59c-18,-17 -37,-31 -41,-31c-11,0 -80,-78 -80,-91c0,-8 6,-7 18,2c15,13 16,12 4,-3c-8,-10 -20,-14 -30,-11c-15,6 -15,5 -3,-10c12,-15 11,-20 -3,-35c-9,-10 -14,-21 -11,-24c3,-3 -1,-8 -8,-11c-11,-4 -13,0 -9,15c3,14 1,19 -6,14c-7,-4 -12,-14 -12,-22c0,-8 -6,-25 -14,-37c-27,-42 -29,-65 -6,-72c11,-3 20,-11 20,-16c0,-6 -7,-6 -19,1c-26,13 -31,13 -31,-5c0,-12 -19,-15 -115,-15c-70,0 -115,-4 -115,-10c0,-5 4,-10 8,-10c5,0 9,-6 9,-13c0,-8 -6,-14 -13,-14c-7,0 -10,5 -8,12c3,6 -5,20 -16,32c-11,13 -16,24 -10,28c6,3 10,1 10,-6c0,-9 3,-10 10,-3c28,28 -106,254 -151,254c-11,0 -16,5 -13,13c4,12 -47,70 -60,68c-19,-3 -26,0 -21,9c3,6 -1,10 -9,10c-9,0 -16,4 -16,8c0,10 -105,61 -135,66c-11,1 -28,6 -38,11c-10,4 -23,2 -32,-5c-13,-11 -14,-10 -9,4c5,12 0,16 -22,16c-23,0 -26,-2 -14,-10c13,-8 13,-10 -2,-10c-9,0 -18,4 -20,10c-3,11 -27,14 -78,11c-29,-2 -32,-4 -15,-11c14,-6 15,-9 4,-9c-8,-1 -19,3 -25,8c-11,11 -97,-3 -149,-25c-19,-8 -38,-14 -42,-15c-12,0 -93,-48 -130,-76c-30,-22 -35,-23 -60,-9c-46,23 -119,93 -151,143c-37,59 -58,119 -67,198l-8,60l41,-37c23,-21 63,-48 89,-61zM3394,6121c4,-5 -3,-7 -14,-4c-23,6 -26,13 -6,13c8,0 17,-4 20,-9zM1787,6114c-3,-3 -12,-4 -19,-1c-8,3 -5,6 6,6c11,1 17,-2 13,-5zM1710,6096c0,-2 -7,-7 -16,-10c-8,-3 -12,-2 -9,4c6,10 25,14 25,6zM2104,6091c4,-5 -3,-7 -14,-4c-23,6 -26,13 -6,13c8,0 17,-4 20,-9zM2140,6070c0,-5 -2,-10 -4,-10c-3,0 -8,5 -11,10c-3,6 -1,10 4,10c6,0 11,-4 11,-10zM3585,6069c11,-17 2,-18 -19,-3c-17,12 -17,14 -4,14c9,0 20,-5 23,-11zM1610,6056c0,-2 -7,-7 -16,-10c-8,-3 -12,-2 -9,4c6,10 25,14 25,6zM2990,6025c-7,-9 -23,-21 -34,-27c-15,-8 -13,-3 9,20c29,31 50,37 25,7zM1835,6020c-3,-5 -14,-10 -24,-10c-39,0 -129,-36 -188,-76c-35,-23 -63,-38 -63,-33c0,5 14,15 30,24c17,9 30,20 30,26c0,6 5,7 10,4c6,-3 14,4 19,17c6,13 10,18 10,11c1,-9 11,-7 39,4c20,9 60,22 87,29c28,7 51,13 53,13c2,1 0,-3 -3,-9zM1908,6023c-10,-2 -26,-2 -35,0c-10,3 -2,5 17,5c19,0 27,-2 18,-5zM3430,6009c18,-10 -46,0 -75,12c-13,6 -5,6 20,3c22,-4 47,-10 55,-15zM1983,6013c-7,-2 -21,-2 -30,0c-10,3 -4,5 12,5c17,0 24,-2 18,-5zM3247,6014c-3,-3 -12,-4 -19,-1c-8,3 -5,6 6,6c11,1 17,-2 13,-5zM2050,6000c13,-9 13,-10 0,-9c-8,0 -24,4 -35,9l-20,9h20c11,0 27,-4 35,-9zM3210,6006c0,-2 -11,-6 -25,-8c-13,-3 -22,-1 -19,3c5,9 44,13 44,5zM2031,5980c63,-19 199,-103 199,-122c0,-6 7,-7 16,-4c9,3 25,-4 39,-18c13,-13 27,-21 31,-17c4,3 4,1 0,-6c-4,-7 0,-25 9,-40l17,-28l-19,25c-37,49 -66,81 -70,76c-3,-3 9,-22 26,-43c55,-69 83,-146 89,-243c3,-53 0,-109 -8,-141c-31,-135 -132,-260 -260,-322c-145,-71 -278,-70 -426,3c-127,62 -207,160 -249,305c-24,80 -17,209 15,283c12,29 20,55 16,59c-3,3 -11,-8 -17,-25c-6,-18 -15,-29 -21,-26c-6,4 -6,9 -2,13c5,3 14,15 20,26c6,11 16,20 22,20c6,0 25,20 43,45c18,25 39,51 46,58c19,19 16,24 -5,11c-10,-6 -32,-32 -50,-57c-18,-26 -32,-41 -32,-34c0,12 25,45 66,88c12,13 19,26 15,31c-3,4 2,1 11,-6c15,-11 22,-9 49,13c105,89 287,121 430,76zM2270,5992c0,-5 10,-14 23,-20c12,-6 17,-11 11,-11c-7,-1 -22,8 -35,19c-13,10 -18,19 -11,20c6,0 12,-4 12,-8zM3441,5984c214,-63 358,-250 359,-465c0,-286 -273,-519 -552,-469c-258,46 -441,298 -398,549c16,97 66,194 134,261c39,39 52,57 43,63c-8,6 -6,7 5,3c10,-3 34,4 53,16c95,55 248,74 356,42zM3500,5990c18,-12 2,-12 -25,0c-13,6 -15,9 -5,9c8,0 22,-4 30,-9zM1508,5965c-3,-3 -9,2 -12,12c-6,14 -5,15 5,6c7,-7 10,-15 7,-18zM1461,5964c-18,-13 -20,-18 -10,-25c7,-4 10,-11 6,-16c-5,-4 -12,-1 -16,6c-7,10 -12,8 -24,-10c-9,-12 -14,-26 -11,-31c3,-5 0,-7 -7,-6c-20,5 -84,-127 -109,-226c-19,-78 -22,-110 -17,-183c6,-95 26,-165 55,-191c10,-9 11,-13 4,-7c-10,7 -8,-4 7,-33c12,-23 25,-41 29,-41c19,3 25,-2 12,-11c-13,-8 -12,-10 2,-10c10,0 17,-6 15,-12c-1,-7 4,-12 11,-10c8,1 11,-2 7,-9c-13,-20 136,-156 156,-143c5,3 9,1 9,-4c0,-6 7,-13 16,-16c13,-5 15,-1 12,19c-3,14 -1,25 3,25c5,0 9,-6 9,-12c0,-10 3,-9 9,1c5,7 14,10 20,7c6,-4 11,-1 11,6c0,10 3,9 9,-2c12,-18 2,-35 -11,-22c-14,14 -40,-12 -32,-32c6,-16 71,-40 137,-51c30,-5 37,-3 32,7c-3,7 0,4 9,-6c14,-17 25,-18 108,-13c101,7 184,29 181,46c-2,6 2,11 7,11c6,0 10,-5 10,-10c0,-6 27,3 60,20c34,17 58,35 55,40c-3,6 1,7 10,4c11,-5 18,0 22,15c3,11 10,18 15,15c10,-7 78,54 78,70c0,5 11,24 25,42c14,18 25,37 25,42c0,5 8,12 18,14c20,6 67,114 76,174c3,21 3,33 0,27c-3,-7 -10,-13 -16,-13c-6,0 -3,9 7,20c9,10 20,34 24,52c4,18 10,32 14,31c4,-2 46,-3 95,-3h87l3,-43c3,-53 42,-187 54,-187c5,0 7,-3 4,-8c-2,-4 2,-18 10,-32c15,-25 15,-25 8,-2c-6,23 -5,23 13,5c10,-10 19,-29 20,-42c0,-13 5,-26 10,-30c4,-3 9,-13 11,-21c2,-8 18,-30 36,-48c29,-29 35,-32 60,-22c17,6 25,6 21,0c-3,-6 -13,-10 -21,-10c-18,0 -14,-22 6,-28c7,-3 10,0 6,6c-4,6 2,10 14,9c13,-1 16,-5 10,-11c-12,-12 -13,-29 -1,-22c5,3 12,-1 15,-10c3,-8 10,-12 16,-9c5,3 10,1 10,-5c0,-7 6,-10 13,-7c17,6 60,-11 53,-21c-16,-26 168,-66 272,-59c100,6 135,14 203,43c91,38 131,64 124,83c-3,8 -3,12 1,8c4,-4 15,7 25,23c11,17 24,30 30,30c8,0 6,-7 -4,-18c-10,-10 -17,-23 -17,-27c0,-5 23,13 50,40c28,27 48,55 46,62c-3,7 0,12 7,10c7,-1 11,6 11,15c-1,10 2,15 7,13c4,-3 20,15 35,41c22,38 25,48 13,55c-11,7 -11,9 2,9c11,0 21,18 33,58c18,64 20,92 8,92c-4,0 -6,17 -3,38l5,37l7,-35c6,-29 7,-25 5,20c0,30 -5,54 -11,53c-5,-1 -10,20 -11,45c0,57 -31,165 -44,157c-6,-4 -7,1 -3,11c4,12 3,15 -5,10c-8,-5 -10,-1 -5,10c4,12 3,15 -5,10c-7,-4 -10,-2 -6,7c6,16 -78,132 -108,148c-11,6 -26,8 -34,5c-9,-3 -12,-1 -9,4c22,36 115,-48 173,-158c86,-160 127,-476 83,-635c-40,-148 -128,-286 -235,-367c-51,-39 -58,-53 -21,-44c30,7 70,-31 123,-119c120,-199 126,-480 15,-702c-35,-70 -94,-167 -99,-162c-2,2 7,28 20,58c45,99 68,205 73,347c3,74 2,132 -3,132c-5,0 -22,-46 -38,-102c-38,-134 -94,-285 -139,-373c-102,-203 -329,-423 -557,-541l-55,-28l61,-7c80,-10 145,-41 212,-104c82,-76 54,-98 -63,-50c-69,28 -74,30 -57,13c18,-18 14,-36 -12,-53c-21,-14 -29,-13 -114,20c-51,19 -126,41 -168,47l-76,12l40,18c42,20 89,64 79,74c-3,3 -47,-1 -98,-10c-118,-20 -393,-21 -504,-1c-43,8 -81,12 -83,10c-2,-2 14,-13 37,-24c82,-42 143,-116 127,-156c-6,-18 -36,-13 -104,16c-37,16 -44,16 -49,3c-3,-8 -18,-21 -33,-29c-27,-14 -35,-12 -127,25c-68,27 -129,43 -198,52l-100,14l40,41c46,47 86,61 198,70c43,3 74,9 70,13c-4,3 -35,14 -68,24c-70,22 -166,68 -213,103l-34,25l-77,-36c-89,-42 -234,-80 -339,-90l-72,-7l48,64c27,35 64,89 83,120c21,34 45,61 63,68c117,50 282,203 358,333c92,156 142,378 121,533c-13,97 -43,178 -84,223l-30,35l6,-35c3,-19 8,-85 12,-146c16,-289 -65,-532 -232,-699c-131,-131 -244,-185 -404,-193l-95,-5l23,34c12,19 41,71 63,117c34,69 42,96 46,159l5,75l-24,-8c-13,-4 -37,-8 -54,-9c-28,0 -31,4 -43,50c-29,111 7,336 77,473c36,70 114,182 170,241c36,39 44,43 73,38c18,-3 42,-9 53,-13c11,-4 -25,37 -80,92c-112,111 -162,187 -202,309c-23,70 -27,97 -27,215c-1,141 8,198 59,357c34,108 136,262 175,263c9,0 6,-6 -9,-16zM2120,5970c8,-5 11,-10 5,-10c-5,0 -17,5 -25,10c-8,5 -10,10 -5,10c6,0 17,-5 25,-10zM3098,5966c-2,-1 -11,-8 -20,-15c-16,-12 -18,-11 -18,3c0,10 5,14 10,11c6,-3 10,-1 10,5c0,6 5,8 11,5c6,-4 9,-8 7,-9zM3560,5967c0,-4 3,-7 8,-5c4,2 25,-14 47,-35l40,-39l-49,36c-27,20 -55,36 -62,36c-7,0 -15,4 -18,8c-2,4 4,8 15,8c10,0 19,-4 19,-9zM2290,5936c0,-2 -7,-7 -16,-10c-8,-3 -12,-2 -9,4c6,10 25,14 25,6zM2242,5896c3,3 8,-2 11,-9c9,-23 -28,-9 -55,21l-23,26l31,-22c17,-12 34,-19 36,-16zM2347,5908c-3,-8 -6,-5 -6,6c-1,11 2,17 5,13c3,-3 4,-12 1,-19zM3768,5745c22,-41 37,-76 34,-79c-2,-3 -18,23 -34,57c-16,34 -47,83 -69,109c-48,57 -51,71 -5,22c18,-19 52,-69 74,-109zM2380,5876c0,-3 -4,-8 -10,-11c-5,-3 -10,-1 -10,4c0,6 5,11 10,11c6,0 10,-2 10,-4zM2423,5821c3,-14 1,-18 -9,-14c-15,6 -18,16 -7,26c9,10 10,9 16,-12zM2913,5799c-8,-8 -13,-7 -18,2c-5,8 -4,10 3,5c7,-4 12,-2 12,5c0,7 3,9 7,6c4,-4 2,-12 -4,-18zM2460,5749c0,-6 -4,-7 -10,-4c-5,3 -10,11 -10,16c0,6 5,7 10,4c6,-3 10,-11 10,-16zM2360,5705c0,-5 -5,-3 -10,5c-5,8 -10,20 -10,25c0,6 5,3 10,-5c5,-8 10,-19 10,-25zM2851,5673c-12,-20 -14,-14 -5,12c4,9 9,14 11,11c3,-2 0,-13 -6,-23zM3836,5658c-5,-35 -36,-52 -36,-20c0,13 2,14 9,4c6,-10 10,-9 14,7c6,23 16,29 13,9zM2392,5642c-7,-2 -9,-9 -6,-14c4,-7 2,-8 -4,-4c-19,12 -15,36 5,29c11,-4 13,-8 5,-11zM2567,5654c-3,-3 -12,-4 -19,-1c-8,3 -5,6 6,6c11,1 17,-2 13,-5zM2837,5618c-3,-8 -6,-5 -6,6c-1,11 2,17 5,13c3,-3 4,-12 1,-19zM1400,5610c0,-5 -2,-10 -4,-10c-3,0 -8,5 -11,10c-3,6 -1,10 4,10c6,0 11,-4 11,-10zM2680,5605c0,-2 -9,-3 -19,-2c-11,0 -18,5 -15,9c4,6 34,0 34,-7zM2400,5578c0,-26 -9,-19 -15,11c-2,12 0,19 6,16c5,-4 9,-16 9,-27zM3817,5578c-3,-8 -6,-5 -6,6c-1,11 2,17 5,13c3,-3 4,-12 1,-19zM2827,5528c-2,-13 -4,-3 -4,22c0,25 2,35 4,23c2,-13 2,-33 0,-45zM1287,5473c-2,-16 -4,-3 -4,27c0,30 2,43 4,28c2,-16 2,-40 0,-55zM2727,5498c-3,-7 -5,-2 -5,12c0,14 2,19 5,13c2,-7 2,-19 0,-25zM3821,5469c-6,-24 -9,-28 -10,-12c-1,24 9,56 16,50c2,-3 0,-20 -6,-38zM2397,5465c-3,-28 -17,-46 -17,-22c0,18 10,47 16,47c3,0 3,-11 1,-25zM1397,5448c-3,-7 -5,-2 -5,12c0,14 2,19 5,13c2,-7 2,-19 0,-25zM2733,5455c-7,-21 -13,-19 -13,6c0,11 4,18 10,14c5,-3 7,-12 3,-20zM2837,5418c-3,-7 -5,-2 -5,12c0,14 2,19 5,13c2,-7 2,-19 0,-25zM1408,5399c-3,-8 -7,-3 -11,10c-4,17 -3,21 5,13c5,-5 8,-16 6,-23zM2378,5389c-6,-16 -12,-28 -14,-26c-5,5 13,57 20,57c3,0 0,-14 -6,-31zM3807,5398c-3,-8 -6,-5 -6,6c-1,11 2,17 5,13c3,-3 4,-12 1,-19zM2737,5388c-3,-8 -6,-5 -6,6c-1,11 2,17 5,13c3,-3 4,-12 1,-19zM2866,5333c-2,-3 -7,5 -11,16c-3,12 -10,19 -15,16c-4,-3 -6,4 -3,16c5,19 7,18 20,-11c7,-18 11,-35 9,-37zM2477,5370c-1,-21 -10,-18 -13,5c-1,8 2,15 6,15c5,0 8,-9 7,-20zM1321,5373c-11,-5 -11,-7 0,-15c12,-8 12,-9 0,-6c-22,6 -25,28 -4,27c12,0 14,-2 4,-6zM3770,5301c-41,-83 -47,-77 -7,7c18,38 33,65 35,61c2,-4 -11,-35 -28,-68zM1444,5310l17,-35l-21,24c-11,13 -20,30 -20,39c0,19 3,15 24,-28zM2310,5248c-28,-35 -56,-70 -63,-78c-6,-8 -11,-18 -9,-23c1,-5 -2,-6 -8,-2c-6,4 9,30 36,63c26,31 56,77 68,101c17,35 22,39 24,23c2,-14 -15,-44 -48,-84zM2931,5229c32,-40 40,-68 10,-31c-11,12 -21,18 -23,13c-1,-4 -12,-5 -23,0c-19,7 -19,8 3,8c12,1 22,6 22,13c0,6 -3,8 -7,5c-3,-4 -15,12 -25,34c-22,50 -23,65 -1,24c9,-16 29,-46 44,-66zM1485,5240l20,-25l-22,19c-13,11 -23,24 -23,29c0,6 1,8 3,6c1,-2 11,-15 22,-29zM2428,5235c-3,-3 -9,2 -12,12c-6,14 -5,15 5,6c7,-7 10,-15 7,-18zM3838,5219c-3,-8 -7,-3 -11,10c-4,17 -3,21 5,13c5,-5 8,-16 6,-23zM3727,5215c0,-8 -4,-12 -9,-9c-5,3 -6,10 -3,15c9,13 12,11 12,-6zM1531,5183c13,-16 12,-17 -3,-4c-17,13 -22,21 -14,21c2,0 10,-8 17,-17zM2870,5185c5,3 10,1 10,-4c0,-17 -26,-13 -41,7c-13,15 -12,16 3,4c9,-8 22,-11 28,-7zM3689,5183c-19,-25 -50,-51 -74,-64c-11,-6 3,9 30,34c54,49 66,57 44,30zM1564,5139c-3,-5 -10,-7 -15,-3c-5,3 -7,10 -3,15c3,5 10,7 15,3c5,-3 7,-10 3,-15zM2875,5142c8,-23 0,-24 -18,-4c-14,15 -15,19 -2,19c8,0 17,-7 20,-15zM3795,5151c3,-5 1,-12 -5,-16c-5,-3 -10,1 -10,9c0,18 6,21 15,7zM1448,5115c-3,-3 -9,2 -12,12c-6,14 -5,15 5,6c7,-7 10,-15 7,-18zM3050,5108c0,-6 -6,-5 -15,2c-8,7 -15,14 -15,16c0,2 7,1 15,-2c8,-4 15,-11 15,-16zM3764,5116c-3,-9 -12,-12 -22,-9c-15,6 -9,11 25,22c1,1 0,-5 -3,-13zM1474,5104c3,-8 2,-12 -4,-9c-6,3 -10,10 -10,16c0,14 7,11 14,-7zM2178,5113c-10,-2 -18,-10 -18,-17c0,-6 -9,-12 -20,-12c-20,0 -20,1 2,18c13,10 30,17 38,17c11,-1 10,-3 -2,-6zM3580,5090c-24,-15 -36,-11 -14,4c10,8 21,12 24,10c2,-3 -2,-9 -10,-14zM2292,5088c20,5 20,4 7,-10c-9,-11 -19,-13 -30,-7c-9,4 -20,5 -25,1c-5,-4 -2,1 6,12c8,10 16,14 18,8c1,-5 13,-7 24,-4zM3090,5078c0,-5 3,-7 8,-5c4,3 39,-6 77,-19c39,-13 62,-24 53,-24c-10,0 -41,9 -69,20c-29,10 -55,17 -59,15c-4,-3 -16,5 -26,16c-16,18 -16,19 -1,13c9,-3 17,-10 17,-16zM1520,5058c0,-6 8,-7 18,-3c14,5 15,4 4,-7c-10,-10 -17,-8 -35,10c-17,18 -18,22 -4,16c9,-3 17,-11 17,-16zM1700,5070c8,-5 12,-11 10,-14c-3,-2 -14,2 -24,10c-22,15 -10,19 14,4zM3473,5049c-17,-17 -83,-29 -158,-27c-68,1 -67,1 26,8c53,4 105,12 115,18c24,15 31,15 17,1zM1972,5027c-34,-10 -129,-10 -164,0c-17,5 14,8 82,8c69,0 100,-3 82,-8zM3635,5010c-19,-21 -40,-26 -49,-11c-4,5 2,7 12,4c10,-2 24,3 31,11c8,9 16,16 19,16c3,0 -3,-9 -13,-20zM2110,4990c0,-5 -5,-10 -11,-10c-5,0 -7,5 -4,10c3,6 8,10 11,10c2,0 4,-4 4,-10zM2150,4980c-24,-15 -36,-11 -14,4c10,8 21,12 24,10c2,-3 -2,-9 -10,-14zM1700,4967c10,-4 8,-6 -7,-6c-12,-1 -24,3 -27,8c-7,11 6,24 13,13c3,-5 13,-12 21,-15zM3555,4980c3,-6 -1,-7 -9,-4c-18,7 -21,14 -7,14c6,0 13,-4 16,-10zM3150,4960c0,-5 -7,-7 -15,-4c-8,4 -15,8 -15,10c0,2 7,4 15,4c8,0 15,-4 15,-10zM3530,4966c0,-3 -4,-8 -10,-11c-5,-3 -10,-1 -10,4c0,6 5,11 10,11c6,0 10,-2 10,-4zM1773,4943c-7,-2 -19,-2 -25,0c-7,3 -2,5 12,5c14,0 19,-2 13,-5zM1855,4940c3,-6 -1,-7 -9,-4c-18,7 -21,14 -7,14c6,0 13,-4 16,-10zM3207,4944c-3,-3 -12,-4 -19,-1c-8,3 -5,6 6,6c11,1 17,-2 13,-5zM1930,4930c-8,-5 -19,-10 -25,-10c-5,0 -3,5 5,10c8,5 20,10 25,10c6,0 3,-5 -5,-10z"></path><path d="M2507,7338c-48,-23 -83,-46 -80,-51c3,-6 1,-7 -6,-3c-8,5 -787,-379 -875,-432c-5,-3 16,-18 48,-34c31,-16 62,-26 68,-22c6,4 8,3 5,-3c-8,-13 149,-89 177,-85c14,2 17,0 8,-6c-8,-6 -2,-13 23,-25l35,-17v49c0,68 29,101 125,140c184,77 471,113 708,90c72,-7 146,-13 164,-13c17,-1 29,-4 27,-7c-6,-10 64,-21 79,-13c6,4 9,3 4,-1c-4,-5 23,-18 60,-30c69,-22 152,-62 187,-90c14,-10 21,-31 24,-69l4,-55l74,37c40,19 70,40 67,45c-3,6 -1,7 5,4c15,-10 43,3 35,16c-3,6 -1,7 5,3c10,-6 189,72 180,78c-32,25 -743,374 -750,370c-7,-5 -8,-2 -3,6c6,10 4,12 -9,7c-9,-4 -15,-3 -12,1c3,4 -48,34 -112,66c-190,95 -166,91 -265,44zM2473,6953c-7,-2 -21,-2 -30,0c-10,3 -4,5 12,5c17,0 24,-2 18,-5z"></path><path d="M2440,6785c-8,-2 -54,-9 -102,-15c-49,-7 -86,-15 -84,-19c2,-3 -11,-6 -28,-7c-18,0 -60,-11 -94,-23c-71,-27 -68,-17 -64,-192l3,-127l57,13c122,28 244,39 417,40c206,0 387,-7 374,-16c-5,-3 32,-13 83,-22c51,-9 102,-19 113,-22c19,-6 20,-2 17,144l-3,150l-45,17c-24,9 -57,17 -73,18c-16,1 -27,4 -25,7c4,8 -127,36 -226,49c-68,9 -284,12 -320,5zM2347,6724c-3,-3 -12,-4 -19,-1c-8,3 -5,6 6,6c11,1 17,-2 13,-5z"></path><path d="M2796,5861c-4,-5 -2,-12 3,-15c5,-4 12,-2 15,3c4,5 2,12 -3,15c-5,4 -12,2 -15,-3z"></path><path d="M1835,5791c-125,-33 -215,-146 -215,-271c0,-142 114,-266 254,-277c118,-10 219,46 270,149c33,65 36,170 7,234c-55,120 -199,196 -316,165zM2067,5678c30,-34 34,-55 19,-93c-26,-62 -89,-74 -137,-26c-32,33 -36,58 -14,101c17,33 27,38 76,39c25,1 42,-6 56,-21z"></path><path d="M3235,5791c-205,-54 -282,-298 -143,-456c62,-71 106,-90 208,-90c75,0 91,3 131,27c93,55 138,134 139,244c0,116 -60,209 -167,256c-50,22 -125,31 -168,19zM3465,5675c35,-34 33,-78 -4,-116c-31,-31 -59,-36 -94,-17c-50,26 -62,86 -26,132c28,36 89,37 124,1z"></path><path d="M2556,5291c-16,-16 -54,-43 -85,-60c-32,-17 -69,-46 -83,-67l-27,-37l35,-51c20,-28 52,-80 71,-116c76,-138 128,-162 203,-94c38,35 110,162 110,195c0,8 9,32 19,53c29,55 16,78 -57,104c-32,12 -80,40 -105,62c-25,22 -47,40 -49,40c-2,0 -17,-13 -32,-29zM2654,5135l24,-16l-19,-59c-19,-60 -46,-120 -54,-120c-5,0 -87,156 -93,175c-1,6 13,19 33,29c19,11 35,23 35,29c0,5 11,2 25,-7c14,-9 36,-23 49,-31z"></path><path d="M3037,4979c7,-7 15,-10 18,-7c3,3 -2,9 -12,12c-14,6 -15,5 -6,-5z"></path><path d="M2588,4186c-24,-28 -54,-50 -83,-61c-42,-17 -48,-17 -88,-1c-30,11 -50,28 -68,56c-31,51 -43,50 -35,-2c15,-92 67,-142 149,-142c62,0 111,25 143,71l20,30l17,-28c49,-86 196,-102 275,-29l31,28l27,-29c51,-54 145,-61 207,-17c35,25 66,90 67,136c0,36 -15,43 -25,12c-11,-35 -55,-78 -91,-90c-62,-21 -134,18 -180,96c-10,17 -12,16 -28,-13c-24,-48 -82,-83 -134,-83c-56,0 -78,12 -127,66l-40,45z"></path><path d="M2789,3772c-40,-95 -191,-95 -248,-1c-34,56 -35,-6 -1,-72c50,-96 159,-113 244,-39c27,24 35,27 40,15c11,-29 69,-55 124,-55c90,0 137,39 148,124c8,57 -8,66 -36,21c-44,-71 -134,-87 -194,-35c-18,17 -37,41 -40,55c-9,35 -18,31 -37,-13z"></path><path d="M5472,6380c-63,-29 -91,-108 -59,-170c34,-67 162,-96 221,-49c56,44 70,110 36,167c-42,69 -117,89 -198,52z"></path><path d="M4635,6318c-3,-7 -4,-281 -3,-608l3,-595h335h335l3,94c2,60 -1,98 -9,107c-9,11 -54,14 -225,14h-214v488c0,366 -3,491 -12,500c-17,17 -207,17 -213,0z"></path><path d="M6150,6013c-51,-10 -150,-62 -195,-104c-92,-85 -129,-159 -146,-291c-12,-100 2,-222 35,-294c52,-113 169,-201 301,-225c113,-21 285,6 341,55l27,23l-14,73c-18,92 -30,101 -97,72c-62,-27 -174,-30 -230,-7c-88,37 -126,105 -126,225c-1,98 13,147 57,196c64,74 157,93 259,54c98,-37 108,-31 128,89c12,72 12,75 -9,92c-45,36 -233,60 -331,42z"></path><path d="M8435,6005c-73,-16 -145,-46 -164,-69c-18,-22 -10,-131 11,-152c14,-14 22,-14 84,6c39,12 109,24 159,27c79,5 96,3 132,-15c46,-24 73,-70 73,-125c0,-35 0,-36 -32,-26c-86,24 -261,0 -349,-48c-124,-67 -178,-205 -132,-338c55,-164 302,-228 462,-121l49,33l13,-31c14,-31 14,-31 102,-34c57,-2 94,1 103,9c22,18 20,624 -2,698c-28,94 -114,165 -232,190c-69,15 -202,13 -277,-4zM8714,5504c12,-4 16,-20 16,-54c0,-60 -13,-96 -48,-133c-39,-41 -74,-57 -128,-57c-39,0 -51,5 -80,34c-29,29 -34,41 -34,79c0,85 72,136 192,137c36,0 73,-3 82,-6z"></path><path d="M7030,6001c-49,-15 -89,-41 -123,-81l-35,-41l-7,43c-13,84 -5,79 -118,76l-102,-3l-3,-429c-2,-314 1,-432 9,-443c9,-10 36,-13 113,-11l101,3l6,255c6,268 10,296 56,358c37,50 93,74 166,70c34,-1 68,1 75,5c8,6 12,37 12,97c0,78 -2,91 -19,100c-22,11 -94,12 -131,1z"></path><path d="M5426,5984c-3,-8 -6,-201 -6,-428c0,-316 3,-416 13,-429c10,-15 27,-17 117,-15l105,3v440v440l-111,3c-95,2 -113,0 -118,-14z"></path><path d="M7297,5994c-4,-4 -7,-152 -7,-329c0,-357 4,-389 63,-467c67,-90 220,-132 338,-93c57,19 96,42 142,83l27,26v-35c0,-63 13,-70 120,-67l95,3v440v440l-104,3c-57,1 -108,-1 -113,-6c-5,-5 -11,-133 -12,-285c-3,-268 -4,-276 -27,-318c-33,-59 -79,-84 -154,-84c-70,1 -107,20 -126,68c-9,22 -15,123 -18,327l-6,295l-106,3c-58,1 -108,-1 -112,-4z"></path><path d="M6247,4884c-4,-4 -7,-264 -7,-579c0,-431 3,-574 12,-583c7,-7 43,-12 93,-12c50,0 86,5 93,12c9,9 12,78 12,248c0,129 4,251 10,269c20,72 95,124 174,123c64,-1 96,-5 91,-10c-2,-3 2,-17 10,-33c12,-23 15,-82 15,-308c0,-267 1,-281 19,-291c28,-14 174,-13 189,2c9,9 12,90 12,304c0,328 -5,361 -68,435c-50,58 -120,89 -203,89c-85,0 -147,-22 -203,-71l-46,-40l-2,223l-3,223l-95,3c-53,1 -99,0 -103,-4zM6260,4318l-5,-563l-3,550c-2,490 0,575 10,575c2,0 1,-253 -2,-562zM6437,4835l1,-40l-6,35c-7,35 -7,35 -67,38c-93,4 -100,10 -10,9l80,-2zM6437,4738c-2,-13 -4,-5 -4,17c-1,22 1,32 4,23c2,-10 2,-28 0,-40zM6437,4678c-3,-7 -5,-2 -5,12c0,14 2,19 5,13c2,-7 2,-19 0,-25zM6437,4623c-3,-10 -5,-4 -5,12c0,17 2,24 5,18c2,-7 2,-21 0,-30zM6740,4537c-7,-7 -78,-12 -84,-6c-3,3 16,6 41,8c26,1 45,0 43,-2zM6615,4520c-27,-12 -43,-12 -25,0c8,5 22,9 30,9c10,0 8,-3 -5,-9zM6810,4514l25,-15l-25,7c-14,3 -29,10 -34,15c-16,14 6,10 34,-7zM6569,4507c-2,-2 -20,-14 -39,-26l-35,-23l30,26c17,14 34,26 39,26c5,0 7,-1 5,-3zM6925,4403c9,-19 14,-37 12,-40c-3,-2 -8,6 -12,19c-4,13 -25,46 -48,73l-40,50l36,-34c20,-19 44,-50 52,-68zM6437,4448c-3,-8 -6,-5 -6,6c-1,11 2,17 5,13c3,-3 4,-12 1,-19zM6590,4386c0,-11 -19,-15 -25,-6c-3,5 1,10 9,10c9,0 16,-2 16,-4zM6643,4383c-7,-2 -21,-2 -30,0c-10,3 -4,5 12,5c17,0 24,-2 18,-5zM6534,4351c-18,-11 -35,-24 -38,-30c-4,-6 -11,-11 -17,-11c-11,0 21,33 47,49c33,19 40,12 8,-8zM6947,4318c-3,-7 -5,-2 -5,12c0,14 2,19 5,13c2,-7 2,-19 0,-25zM6463,4285c-3,-9 -8,-14 -10,-11c-3,3 -2,9 2,15c9,16 15,13 8,-4zM6960,4025c0,-151 -3,-275 -7,-275c-5,0 -7,124 -5,275c1,151 5,275 7,275c3,0 5,-124 5,-275zM6437,4123c-2,-21 -4,-4 -4,37c0,41 2,58 4,38c2,-21 2,-55 0,-75zM6437,3948c-2,-13 -4,-3 -4,22c0,25 2,35 4,23c2,-13 2,-33 0,-45zM6777,3908c-3,-8 -6,-5 -6,6c-1,11 2,17 5,13c3,-3 4,-12 1,-19zM6437,3898c-3,-8 -6,-5 -6,6c-1,11 2,17 5,13c3,-3 4,-12 1,-19zM6777,3843c-3,-10 -5,-4 -5,12c0,17 2,24 5,18c2,-7 2,-21 0,-30zM6437,3798c-2,-13 -4,-5 -4,17c-1,22 1,32 4,23c2,-10 2,-28 0,-40zM6432,3738c-6,-6 -12,-4 -16,7c-3,9 -2,13 4,10c6,-3 10,0 11,7c0,10 2,10 6,0c3,-8 1,-18 -5,-24zM6785,3740c3,-5 1,-10 -4,-10c-6,0 -11,5 -11,10c0,6 2,10 4,10c3,0 8,-4 11,-10zM6307,3734c-3,-3 -12,-4 -19,-1c-8,3 -5,6 6,6c11,1 17,-2 13,-5zM6353,3733c-7,-2 -19,-2 -25,0c-7,3 -2,5 12,5c14,0 19,-2 13,-5z"></path><path d="M8997,4884c-4,-4 -7,-264 -7,-579c0,-431 3,-574 12,-583c17,-17 172,-16 187,2c8,9 10,172 9,587l-3,574l-95,3c-53,1 -99,0 -103,-4zM9010,4830c-6,-37 -8,-40 -9,-13c-1,29 8,68 14,61c1,-2 -1,-23 -5,-48zM9127,4873c-20,-2 -52,-2 -70,0c-17,2 0,4 38,4c39,0 53,-2 32,-4zM9188,4699l-3,-164l-5,172c-3,95 -2,169 3,164c4,-4 6,-81 5,-172zM9007,4728c-3,-7 -5,-2 -5,12c0,14 2,19 5,13c2,-7 2,-19 0,-25zM9007,4598c-2,-18 -4,-6 -4,27c0,33 2,48 4,33c2,-15 2,-42 0,-60zM9187,4473c-3,-10 -5,-2 -5,17c0,19 2,27 5,18c2,-10 2,-26 0,-35zM9187,4263c-2,-32 -3,-6 -3,57c0,63 1,89 3,58c2,-32 2,-84 0,-115zM9007,4343c-3,-10 -5,-2 -5,17c0,19 2,27 5,18c2,-10 2,-26 0,-35zM9007,4178c-2,-24 -4,-7 -4,37c0,44 2,63 4,43c2,-21 2,-57 0,-80zM9187,4138c-2,-13 -4,-3 -4,22c0,25 2,35 4,23c2,-13 2,-33 0,-45zM9187,4013c-2,-21 -4,-6 -4,32c0,39 2,55 4,38c2,-18 2,-50 0,-70zM9007,4008c-3,-7 -5,-2 -5,12c0,14 2,19 5,13c2,-7 2,-19 0,-25zM9007,3878c-2,-24 -4,-7 -4,37c0,44 2,63 4,43c2,-21 2,-57 0,-80zM9190,3845c0,-113 0,-115 -22,-114c-17,1 -19,2 -5,6c15,4 17,18 17,114c0,60 2,109 5,109c3,0 5,-52 5,-115zM9012,3786c2,-19 0,-32 -4,-30c-8,5 -12,64 -4,64c2,0 6,-15 8,-34z"></path><path d="M4860,4834c-164,-44 -248,-161 -238,-333c3,-60 11,-88 33,-130c28,-51 97,-121 119,-121c6,0 0,10 -14,21l-25,21l25,-14c14,-9 25,-22 25,-29c0,-8 35,-29 80,-47c44,-19 108,-47 143,-64c98,-46 125,-110 82,-191c-11,-20 -20,-40 -19,-43c0,-3 -3,-9 -7,-12c-4,-4 -4,-1 0,6c9,16 6,15 -40,-4c-53,-22 -154,-13 -236,21c-35,15 -75,32 -90,38c-36,15 -43,7 -70,-82l-22,-74l26,-22c15,-13 57,-34 95,-46c59,-21 87,-24 203,-24c163,1 219,19 304,96c85,77 120,187 97,301c-23,110 -98,189 -231,244c-216,89 -260,122 -260,194c0,48 36,94 87,111c53,17 157,5 237,-27c64,-27 69,-27 81,-11c15,21 38,127 34,153c-12,62 -280,105 -419,68zM4923,4823c-7,-2 -19,-2 -25,0c-7,3 -2,5 12,5c14,0 19,-2 13,-5zM5156,4815c91,-21 114,-34 114,-64c0,-24 -1,-24 -14,-6c-8,11 -13,23 -10,26c4,8 -91,39 -120,39c-11,0 -28,5 -36,10c-21,13 -6,12 66,-5zM4860,4810c-8,-5 -22,-9 -30,-9c-10,0 -8,3 5,9c27,12 43,12 25,0zM4805,4790c-3,-5 -12,-10 -19,-10c-7,0 -35,-19 -62,-42c-46,-40 -47,-40 -15,-5c19,20 48,43 65,51c37,19 39,19 31,6zM5257,4698c-3,-8 -6,-5 -6,6c-1,11 2,17 5,13c3,-3 4,-12 1,-19zM4662,4640c-10,-27 -18,-44 -20,-37c-3,13 25,87 32,87c2,0 -3,-22 -12,-50zM4963,4673c-7,-2 -19,-2 -25,0c-7,3 -2,5 12,5c14,0 19,-2 13,-5zM5063,4673c-7,-2 -21,-2 -30,0c-10,3 -4,5 12,5c17,0 24,-2 18,-5zM5246,4645c-7,-26 -25,-31 -61,-15c-16,7 -13,8 15,7c30,-2 35,1 38,21c2,13 6,21 9,18c3,-3 3,-17 -1,-31zM4920,4666c0,-2 -7,-7 -16,-10c-8,-3 -12,-2 -9,4c6,10 25,14 25,6zM5135,4652c-3,-3 -11,0 -18,7c-9,10 -8,11 6,5c10,-3 15,-9 12,-12zM4852,4618c-7,-7 -12,-8 -12,-2c0,6 3,14 7,17c3,4 9,5 12,2c2,-3 -1,-11 -7,-17zM4834,4602c2,-4 1,-14 -3,-21c-6,-9 -10,-7 -14,8c-5,20 7,29 17,13zM4637,4513c-3,-10 -5,-2 -5,17c0,19 2,27 5,18c2,-10 2,-26 0,-35zM4647,4438c-3,-7 -5,-2 -5,12c0,14 2,19 5,13c2,-7 2,-19 0,-25zM4718,4315l17,-20l-24,20c-13,11 -32,37 -42,57c-28,55 -23,60 7,8c14,-25 33,-54 42,-65zM4986,4372c-5,-4 -86,36 -86,43c0,3 20,-5 45,-17c24,-12 43,-23 41,-26zM5070,4346c0,-3 -4,-8 -10,-11c-5,-3 -10,-1 -10,4c0,6 5,11 10,11c6,0 10,-2 10,-4zM5190,4285c0,-3 -18,4 -40,15c-22,11 -40,23 -40,25c0,3 18,-4 40,-15c22,-11 40,-23 40,-25zM5286,4188c8,-15 14,-31 14,-35c-1,-4 -8,5 -16,20c-21,38 -55,77 -64,72c-4,-2 -7,3 -7,11c0,19 53,-30 73,-68zM4864,4225c31,-14 60,-24 64,-23c4,1 34,-12 67,-30c33,-17 57,-31 53,-32c-11,0 -103,44 -106,52c-2,4 -9,5 -15,3c-7,-2 -39,9 -72,25c-74,35 -68,39 9,5zM5090,4108c0,-6 -6,-5 -15,2c-8,7 -15,14 -15,16c0,2 7,1 15,-2c8,-4 15,-11 15,-16zM5317,4073c-3,-10 -5,-4 -5,12c0,17 2,24 5,18c2,-7 2,-21 0,-30zM5130,4009c0,-26 -3,-50 -7,-52c-5,-3 -6,16 -5,43c2,26 -1,59 -8,71c-11,23 -10,23 4,5c10,-12 16,-39 16,-67zM5317,3968c-3,-8 -6,-5 -6,6c-1,11 2,17 5,13c3,-3 4,-12 1,-19zM5291,3893c-23,-42 -71,-103 -71,-89c0,4 13,23 29,42c16,18 35,49 42,69c8,20 15,32 17,26c2,-5 -6,-27 -17,-48zM4716,3929c4,-8 -1,-9 -16,-4c-15,5 -25,2 -31,-6c-7,-11 -9,-10 -9,4c0,19 44,25 56,6zM4771,3904c23,-10 26,-13 9,-9c-14,4 -31,7 -37,7c-7,1 -13,5 -13,10c0,11 2,10 41,-8zM4646,3849c-8,-24 -14,-37 -15,-28c-1,19 20,82 25,76c2,-2 -2,-23 -10,-48zM4830,3880c0,-5 6,-7 14,-4c8,3 16,2 19,-3c3,-4 -7,-8 -22,-8c-16,-1 -28,5 -28,12c0,7 4,13 9,13c4,0 8,-4 8,-10zM5025,3870c-3,-5 -18,-9 -33,-9l-27,1l30,8c17,4 31,8 33,9c2,0 0,-3 -3,-9zM4651,3783c13,-16 12,-17 -3,-4c-17,13 -22,21 -14,21c2,0 10,-8 17,-17zM5191,3780c-13,-11 -28,-20 -35,-20c-6,0 3,9 19,20c38,25 47,25 16,0zM4710,3760c18,-12 2,-12 -25,0c-13,6 -15,9 -5,9c8,0 22,-4 30,-9zM5135,3750c-3,-5 -12,-10 -18,-10c-7,0 -6,4 3,10c19,12 23,12 15,0zM4823,3723c-7,-2 -19,-2 -25,0c-7,3 -2,5 12,5c14,0 19,-2 13,-5zM5000,3720c-8,-5 -44,-9 -80,-8l-65,2l70,6c39,4 75,7 80,8c6,1 3,-3 -5,-8zM5053,3723c-7,-2 -19,-2 -25,0c-7,3 -2,5 12,5c14,0 19,-2 13,-5z"></path><path d="M5746,4539c-65,-16 -155,-70 -198,-118c-22,-25 -55,-75 -72,-111c-30,-62 -31,-71 -31,-190c0,-99 4,-136 19,-175c62,-162 192,-245 386,-245c102,0 213,29 230,60c9,18 3,69 -16,133c-7,21 -19,20 -114,-8c-114,-33 -225,8 -271,101c-34,71 -34,190 1,258c56,108 155,142 281,96c33,-12 66,-19 74,-16c15,5 35,88 35,142c0,32 -4,37 -47,56c-55,24 -211,34 -277,17zM5904,4532c2,-4 -12,-6 -32,-4c-56,5 -62,10 -15,11c23,1 44,-3 47,-7zM5953,4523c-7,-2 -19,-2 -25,0c-7,3 -2,5 12,5c14,0 19,-2 13,-5zM6025,4506c29,-12 35,-20 34,-43c-1,-22 -3,-24 -6,-6c-5,26 -18,37 -58,51c-16,6 -24,11 -17,11c7,1 28,-6 47,-13zM5680,4495c0,-2 -13,-11 -30,-20c-38,-19 -40,-11 -2,9c31,17 32,18 32,11zM5609,4448c-2,-2 -20,-16 -39,-33l-35,-30l34,37c19,21 37,36 39,33c3,-3 3,-6 1,-7zM5867,4384c-3,-3 -12,-4 -19,-1c-8,3 -5,6 6,6c11,1 17,-2 13,-5zM5524,4355c-9,-14 -18,-25 -21,-25c-5,0 5,18 20,38c17,22 18,13 1,-13zM5950,4371c0,-4 -11,-6 -25,-3c-14,2 -25,6 -25,8c0,2 11,4 25,4c14,0 25,-4 25,-9zM6005,4342c-6,-8 -35,12 -35,24c0,11 4,10 18,-3c10,-10 18,-19 17,-21zM5755,4350c-3,-5 -12,-10 -18,-10c-7,0 -6,4 3,10c19,12 23,12 15,0zM6031,4337c-10,-9 -11,-8 -5,6c3,10 9,15 12,12c3,-3 0,-11 -7,-18zM5678,4265c-12,-24 -23,-43 -25,-41c-5,5 32,86 39,86c4,0 -2,-20 -14,-45zM5467,4203c-3,-10 -5,-4 -5,12c0,17 2,24 5,18c2,-7 2,-21 0,-30zM5457,4078c-2,-18 -4,-4 -4,32c0,36 2,50 4,33c2,-18 2,-48 0,-65zM5637,4088c-2,-18 -4,-6 -4,27c0,33 2,48 4,33c2,-15 2,-42 0,-60zM5467,3998c-3,-7 -5,-2 -5,12c0,14 2,19 5,13c2,-7 2,-19 0,-25zM6050,3893c0,-5 -12,-9 -27,-10c-19,-1 -22,1 -12,8c17,11 39,12 39,2zM5795,3870c13,-6 15,-9 5,-9c-8,0 -22,4 -30,9c-18,12 -2,12 25,0zM5590,3792c0,-3 -16,9 -35,28c-19,19 -35,37 -35,41c0,4 16,-9 35,-28c19,-19 35,-38 35,-41zM5898,3853c-16,-2 -40,-2 -55,0c-16,2 -3,4 27,4c30,0 43,-2 28,-4zM6067,3788c-3,-7 -5,-2 -5,12c0,14 2,19 5,13c2,-7 2,-19 0,-25zM5680,3742c-10,-4 -66,24 -74,37c-3,5 14,-1 38,-13c24,-11 40,-22 36,-24zM6065,3760c-3,-5 -11,-10 -16,-10c-6,0 -7,5 -4,10c3,6 11,10 16,10c6,0 7,-4 4,-10zM6009,3736c-2,-2 -18,-7 -34,-11l-30,-6l30,14c27,13 45,14 34,3zM5769,3724c10,-9 -45,-3 -59,6c-11,7 -5,8 20,4c19,-4 37,-8 39,-10zM5915,3720c-3,-5 -36,-9 -73,-8l-67,1l65,7c36,4 69,7 73,8c5,1 5,-2 2,-8z"></path><path d="M7363,4531c-111,-41 -201,-128 -244,-238c-19,-48 -23,-77 -23,-168c0,-113 18,-190 59,-252c20,-29 32,-24 15,6c-6,12 -8,21 -6,21c3,0 13,-14 22,-31c8,-17 11,-28 5,-25c-6,4 -11,3 -11,-2c0,-18 83,-85 139,-111c51,-24 67,-26 181,-26c124,0 127,1 195,35c44,22 70,42 71,54c2,10 12,25 23,33c11,7 32,34 47,58c14,25 28,45 30,45c10,0 -30,-64 -63,-101c-19,-21 -31,-39 -25,-39c11,0 66,65 93,110c47,76 68,210 50,316c-25,141 -98,240 -219,297c-61,29 -77,32 -177,34c-88,2 -121,-1 -162,-16zM7610,4530c14,-4 -11,-5 -55,-2c-45,2 -105,-1 -134,-7c-30,-6 -56,-9 -58,-7c-18,18 196,32 247,16zM7681,4502c-7,-2 -18,1 -23,6c-8,8 -4,9 13,5c13,-4 18,-8 10,-11zM7320,4490c-35,-24 -54,-31 -30,-11c14,11 30,21 35,21c6,0 3,-5 -5,-10zM7740,4474c0,-2 -9,0 -20,6c-11,6 -20,13 -20,16c0,2 9,0 20,-6c11,-6 20,-13 20,-16zM7801,4433c13,-17 13,-17 -7,0c-11,9 -23,15 -26,12c-3,-3 -8,1 -12,10c-4,12 -2,14 13,6c10,-6 24,-18 32,-28zM7230,4422c0,-4 -10,-13 -22,-21c-23,-14 -23,-14 -4,8c20,22 26,25 26,13zM7553,4383c-7,-2 -19,-2 -25,0c-7,3 -2,5 12,5c14,0 19,-2 13,-5zM7190,4370c0,-5 -5,-10 -11,-10c-5,0 -7,5 -4,10c3,6 8,10 11,10c2,0 4,-4 4,-10zM7430,4370c-8,-5 -19,-10 -25,-10c-5,0 -3,5 5,10c8,5 20,10 25,10c6,0 3,-5 -5,-10zM7605,4370c3,-6 -1,-7 -9,-4c-18,7 -21,14 -7,14c6,0 13,-4 16,-10zM7597,4349c147,-71 147,-376 0,-452c-46,-24 -132,-25 -175,-3c-123,64 -151,308 -48,419c54,59 146,73 223,36zM7658,4332c15,-15 32,-36 36,-47c4,-11 4,-15 -1,-10c-4,6 -24,27 -42,48c-40,43 -35,50 7,9zM7880,4319c0,-6 -4,-7 -10,-4c-5,3 -10,11 -10,16c0,6 5,7 10,4c6,-3 10,-11 10,-16zM7345,4310c3,-5 1,-10 -4,-10c-6,0 -11,5 -11,10c0,6 2,10 4,10c3,0 8,-4 11,-10zM7887,4278c-3,-8 -6,-5 -6,6c-1,11 2,17 5,13c3,-3 4,-12 1,-19zM7125,4235c-7,-28 -14,-43 -14,-35c-1,19 19,93 24,88c2,-2 -2,-26 -10,-53zM7907,4178c-2,-13 -4,-5 -4,17c-1,22 1,32 4,23c2,-10 2,-28 0,-40zM7297,4078c-2,-18 -4,-6 -4,27c0,33 2,48 4,33c2,-15 2,-42 0,-60zM7907,4053c-2,-16 -4,-5 -4,22c0,28 2,40 4,28c2,-13 2,-35 0,-50zM7117,4033c-3,-10 -5,-4 -5,12c0,17 2,24 5,18c2,-7 2,-21 0,-30zM7307,4018c-3,-8 -6,-5 -6,6c-1,11 2,17 5,13c3,-3 4,-12 1,-19zM7710,4003c-11,-17 -11,-17 -6,0c3,10 6,24 7,30c0,9 2,9 5,0c3,-7 0,-20 -6,-30zM7127,3988c-3,-8 -6,-5 -6,6c-1,11 2,17 5,13c3,-3 4,-12 1,-19zM7359,3926c9,-10 30,-27 46,-37c17,-11 24,-19 17,-19c-20,0 -100,82 -107,110c-5,22 -4,22 11,-5c9,-16 24,-39 33,-49zM7887,3968c-3,-8 -6,-5 -6,6c-1,11 2,17 5,13c3,-3 4,-12 1,-19zM7691,3957c-10,-9 -11,-8 -5,6c3,10 9,15 12,12c3,-3 0,-11 -7,-18zM7149,3938c6,-18 7,-28 2,-23c-10,12 -25,55 -18,55c3,0 10,-15 16,-32zM7680,3937c0,-2 -10,-12 -22,-23l-23,-19l19,23c18,21 26,27 26,19zM7465,3860c3,-6 -1,-7 -9,-4c-18,7 -21,14 -7,14c6,0 13,-4 16,-10zM7577,3864c-3,-3 -12,-4 -19,-1c-8,3 -5,6 6,6c11,1 17,-2 13,-5zM7513,3853c-7,-2 -19,-2 -25,0c-7,3 -2,5 12,5c14,0 19,-2 13,-5zM7290,3763c0,-9 -37,18 -60,43c-22,24 -20,23 18,-6c23,-18 42,-35 42,-37zM7355,3732c-3,-3 -11,0 -18,7c-9,10 -8,11 6,5c10,-3 15,-9 12,-12zM7407,3724c-3,-3 -12,-4 -19,-1c-8,3 -5,6 6,6c11,1 17,-2 13,-5zM7560,3716c8,-2 -19,-4 -60,-4c-43,0 -65,3 -51,7c23,6 75,5 111,-3z"></path><path d="M8324,4541c-53,-14 -120,-50 -167,-91c-91,-81 -137,-187 -137,-320c0,-188 81,-329 228,-398c52,-25 68,-27 182,-27c119,0 128,1 190,31c82,39 124,75 165,139c91,143 98,352 17,484c-15,24 -34,45 -43,47c-10,1 -26,11 -38,23c-28,28 -14,27 16,-1c13,-12 23,-17 23,-11c0,18 -73,71 -137,100c-50,24 -73,28 -163,30c-58,1 -119,-2 -136,-6zM8478,4533c-21,-2 -55,-2 -75,0c-21,2 -4,4 37,4c41,0 58,-2 38,-4zM8553,4523c-7,-2 -19,-2 -25,0c-7,3 -2,5 12,5c14,0 19,-2 13,-5zM8653,4489c20,-11 37,-21 37,-24c0,-4 -111,44 -120,53c-9,9 45,-11 83,-29zM8274,4497c-2,-7 -14,-13 -25,-13c-19,0 -19,1 -3,13c10,7 21,13 26,13c4,0 5,-6 2,-13zM8149,4412c-24,-26 -50,-57 -57,-68c-11,-16 -11,-15 -1,6c10,23 88,110 97,110c3,0 -15,-22 -39,-48zM8413,4383c-7,-2 -19,-2 -25,0c-7,3 -2,5 12,5c14,0 19,-2 13,-5zM8525,4380c4,-6 10,-8 15,-5c4,3 11,-2 14,-10c5,-13 2,-14 -16,-4c-12,7 -33,15 -47,20l-26,7l27,1c15,1 30,-4 33,-9zM8370,4376c0,-2 -7,-7 -16,-10c-8,-3 -12,-2 -9,4c6,10 25,14 25,6zM8800,4336c0,-6 -7,-1 -15,10c-8,10 -15,23 -15,28c0,6 7,1 15,-10c8,-10 15,-23 15,-28zM8527,4351c125,-57 154,-305 49,-419c-65,-73 -185,-77 -260,-11c-46,39 -69,112 -69,209c0,74 24,157 52,174c6,4 11,12 11,18c0,6 -6,6 -15,-2c-9,-7 -17,-11 -19,-9c-2,2 11,15 28,29c17,13 25,17 17,7c-17,-22 -14,-21 34,3c49,25 117,25 172,1zM8625,4317c4,5 5,2 1,-5c-4,-7 -2,-19 4,-27c9,-11 9,-15 1,-15c-6,0 -11,4 -11,9c0,5 -12,24 -27,43c-26,32 -26,32 -2,10c14,-12 29,-19 34,-15zM8066,4279c-9,-19 -15,-29 -16,-22c0,15 22,64 27,60c2,-2 -3,-19 -11,-38zM8814,4304c3,-8 2,-12 -4,-9c-6,3 -10,10 -10,16c0,14 7,11 14,-7zM8263,4275c-3,-9 -8,-14 -10,-11c-3,3 -2,9 2,15c9,16 15,13 8,-4zM8827,4258c-3,-8 -6,-5 -6,6c-1,11 2,17 5,13c3,-3 4,-12 1,-19zM8047,4218c-3,-8 -6,-5 -6,6c-1,11 2,17 5,13c3,-3 4,-12 1,-19zM8647,4218c-3,-8 -6,-5 -6,6c-1,11 2,17 5,13c3,-3 4,-12 1,-19zM8837,4208c-3,-8 -6,-5 -6,6c-1,11 2,17 5,13c3,-3 4,-12 1,-19zM8657,4163c-3,-10 -5,-4 -5,12c0,17 2,24 5,18c2,-7 2,-21 0,-30zM8037,4113c-2,-16 -4,-3 -4,27c0,30 2,43 4,28c2,-16 2,-40 0,-55zM8227,4088c-2,-18 -4,-4 -4,32c0,36 2,50 4,33c2,-18 2,-48 0,-65zM8657,4058c-2,-13 -4,-3 -4,22c0,25 2,35 4,23c2,-13 2,-33 0,-45zM8837,4043c-3,-10 -5,-4 -5,12c0,17 2,24 5,18c2,-7 2,-21 0,-30zM8047,4018c-3,-7 -5,-2 -5,12c0,14 2,19 5,13c2,-7 2,-19 0,-25zM8237,4028c-3,-8 -6,-5 -6,6c-1,11 2,17 5,13c3,-3 4,-12 1,-19zM8647,4008c-3,-8 -6,-5 -6,6c-1,11 2,17 5,13c3,-3 4,-12 1,-19zM8057,3978c-3,-8 -6,-5 -6,6c-1,11 2,17 5,13c3,-3 4,-12 1,-19zM8630,3965c0,-8 -72,-85 -79,-85c-4,0 11,20 33,44c43,46 46,49 46,41zM8098,3894c-4,-3 -12,5 -18,18c-12,22 -12,22 6,6c10,-10 15,-20 12,-24zM8305,3910c10,-11 16,-20 13,-20c-3,0 -13,9 -23,20c-10,11 -16,20 -13,20c3,0 13,-9 23,-20zM8792,3908c-7,-7 -12,-8 -12,-2c0,14 12,26 19,19c2,-3 -1,-11 -7,-17zM8180,3792c0,-10 -61,52 -72,72c-6,11 8,0 31,-24c22,-24 41,-46 41,-48zM8381,3862c-7,-2 -18,1 -23,6c-8,8 -4,9 13,5c13,-4 18,-8 10,-11zM8525,3870c-3,-5 -12,-10 -18,-10c-7,0 -6,4 3,10c19,12 23,12 15,0zM8463,3853c-7,-2 -21,-2 -30,0c-10,3 -4,5 12,5c17,0 24,-2 18,-5zM8745,3840c-3,-5 -12,-10 -18,-10c-7,0 -6,4 3,10c19,12 23,12 15,0zM8690,3796c0,-2 -8,-10 -17,-17c-16,-13 -17,-12 -4,4c13,16 21,21 21,13zM8650,3765c0,-7 -70,-35 -84,-34c-6,0 7,9 29,19c42,20 55,23 55,15zM8264,3751c4,-5 -3,-7 -14,-4c-23,6 -26,13 -6,13c8,0 17,-4 20,-9zM8469,3714c8,-7 -104,-2 -134,6c-17,4 5,5 50,2c44,-2 82,-6 84,-8z"></path></g></g></g></svg>